<?xml version="1.0" standalone="no"?>
<!DOCTYPE svg PUBLIC "-//W3C//DTD SVG 20010904//EN"
 "http://www.w3.org/TR/2001/REC-SVG-20010904/DTD/svg10.dtd">
<svg version="1.0" xmlns="http://www.w3.org/2000/svg"
 width="100.000000pt" height="100.000000pt" viewBox="0 0 100.000000 100.000000"
 preserveAspectRatio="xMidYMid meet">
<metadata>
Created by potrace 1.10, written by Peter Selinger 2001-2011
</metadata>
<g transform="translate(0.000000,100.000000) scale(0.100000,-0.100000)"
fill="#00FF00" stroke="none">
<path d="M350 670 c-8 -5 -28 -15 -45 -22 -16 -7 -35 -23 -41 -36 -6 -12 -21
-33 -33 -46 -11 -12 -21 -25 -21 -28 0 -3 20 -11 45 -17 40 -10 45 -14 45 -39
0 -27 26 -88 50 -117 18 -21 57 -18 80 5 11 11 28 20 38 20 9 0 39 16 66 35
27 19 57 35 65 35 19 0 125 -97 134 -122 8 -21 30 -23 46 -5 18 23 -14 104
-45 111 -25 7 -37 27 -49 79 -7 32 -37 47 -97 47 -35 0 -41 3 -51 31 -10 26
-16 30 -44 27 -22 -2 -39 4 -55 19 -27 25 -67 36 -88 23z"/>
</g>
</svg>
