<?xml version="1.0" standalone="no"?>
<!DOCTYPE svg PUBLIC "-//W3C//DTD SVG 20010904//EN"
 "http://www.w3.org/TR/2001/REC-SVG-20010904/DTD/svg10.dtd">
<svg version="1.0" xmlns="http://www.w3.org/2000/svg"
 width="150.000000pt" height="150.000000pt" viewBox="0 0 150.000000 150.000000"
 preserveAspectRatio="xMidYMid meet">

<g transform="translate(0.000000,150.000000) scale(0.100000,-0.100000)"
fill="#C0C0C0" stroke="none">
<path d="M840 1050 c-11 -11 -20 -31 -20 -44 0 -13 -7 -40 -15 -60 -19 -44
-44 -47 -113 -12 -26 13 -85 31 -131 40 -47 10 -93 22 -102 27 -31 16 -58 10
-76 -17 -24 -37 -68 -54 -110 -42 -18 5 -38 6 -43 3 -6 -3 -10 -40 -10 -81 0
-70 -2 -75 -25 -86 -14 -6 -25 -15 -25 -19 0 -14 69 -21 135 -14 35 3 69 4 74
1 6 -4 5 -20 -1 -43 -8 -29 -7 -38 3 -42 26 -8 109 -101 109 -121 0 -11 -4
-20 -10 -20 -5 0 -10 -7 -10 -15 0 -19 32 -19 68 -1 79 40 166 27 219 -33 25
-29 34 -34 44 -23 20 18 126 16 137 -4 6 -10 19 -14 38 -12 25 3 30 8 34 38 5
33 8 35 45 38 66 4 80 10 131 52 52 42 70 86 81 192 5 44 2 50 -26 74 -33 28
-40 44 -17 44 14 0 96 77 96 90 0 5 -15 16 -32 26 -102 53 -100 52 -228 53
-94 1 -128 5 -140 16 -23 21 -56 19 -80 -5z"/>
</g>
</svg>
