<?xml version="1.0" standalone="no"?>
<!DOCTYPE svg PUBLIC "-//W3C//DTD SVG 20010904//EN"
 "http://www.w3.org/TR/2001/REC-SVG-20010904/DTD/svg10.dtd">
<svg version="1.0" xmlns="http://www.w3.org/2000/svg"
 width="150.000000pt" height="150.000000pt" viewBox="0 0 150.000000 150.000000"
 preserveAspectRatio="xMidYMid meet">

<g transform="translate(0.000000,150.000000) scale(0.100000,-0.100000)"
fill="#FF00FF" stroke="none">
<path d="M757 990 c-3 -11 -14 -20 -25 -20 -15 0 -22 -11 -31 -42 -15 -58 -21
-66 -56 -70 -21 -2 -34 -11 -43 -30 -7 -15 -28 -39 -47 -53 -42 -33 -46 -45
-33 -89 9 -27 17 -36 34 -36 12 0 36 -12 53 -26 29 -24 35 -25 105 -19 40 4
83 4 95 0 25 -8 28 -41 4 -67 -23 -25 -12 -31 62 -36 l64 -4 0 33 c0 60 13
159 22 165 13 8 11 54 -2 54 -6 0 -1 12 10 27 20 24 20 28 6 49 -9 14 -15 46
-15 83 l0 59 -65 12 c-36 7 -68 16 -71 21 -3 5 -18 9 -33 9 -20 0 -30 -6 -34
-20z"/>
</g>
</svg>
