<?xml version="1.0" standalone="no"?>
<!DOCTYPE svg PUBLIC "-//W3C//DTD SVG 20010904//EN"
 "http://www.w3.org/TR/2001/REC-SVG-20010904/DTD/svg10.dtd">
<svg version="1.0" xmlns="http://www.w3.org/2000/svg"
 width="150.000000pt" height="150.000000pt" viewBox="0 0 150.000000 150.000000"
 preserveAspectRatio="xMidYMid meet">

<g transform="translate(0.000000,150.000000) scale(0.100000,-0.100000)"
fill="#FF0000" stroke="none">
<path d="M694 1007 c-3 -14 -19 -38 -35 -53 -25 -23 -33 -26 -48 -17 -33 21
-110 27 -129 10 -9 -8 -36 -18 -58 -22 -26 -4 -51 -17 -68 -34 -24 -25 -25
-29 -11 -41 11 -9 14 -22 10 -41 -5 -21 0 -37 14 -58 12 -16 21 -34 21 -39 0
-6 14 -22 32 -37 26 -22 37 -25 69 -20 30 5 45 1 77 -19 22 -14 43 -30 47 -36
3 -5 32 -22 63 -36 31 -15 73 -34 92 -43 19 -9 48 -26 63 -38 42 -34 71 -30
82 10 9 30 13 32 50 30 22 -1 61 -5 87 -9 41 -5 48 -3 62 18 15 22 56 142 56
164 0 17 -91 44 -149 44 l-54 0 5 38 6 38 -82 52 c-45 29 -94 68 -109 87 -14
18 -40 43 -56 55 l-30 21 -7 -24z"/>
</g>
</svg>
