<?xml version="1.0" standalone="no"?>
<!DOCTYPE svg PUBLIC "-//W3C//DTD SVG 20010904//EN"
 "http://www.w3.org/TR/2001/REC-SVG-20010904/DTD/svg10.dtd">
<svg version="1.0" xmlns="http://www.w3.org/2000/svg"
 width="150.000000pt" height="150.000000pt" viewBox="0 0 150.000000 150.000000"
 preserveAspectRatio="xMidYMid meet">
<metadata>
Created by potrace 1.10, written by Peter Selinger 2001-2011
</metadata>
<g transform="translate(0.000000,150.000000) scale(0.100000,-0.100000)"
fill="#800000	" stroke="none">
<path d="M455 1118 c-100 -24 -94 -22 -58 -26 42 -4 83 -43 83 -79 0 -15 -3
-52 -7 -82 -5 -49 -9 -55 -40 -67 -18 -8 -33 -18 -33 -22 0 -15 60 -72 87 -83
22 -8 24 -12 13 -19 -8 -6 -29 -10 -46 -10 -16 0 -38 -6 -47 -12 -15 -12 -15
-15 4 -45 12 -18 29 -33 40 -33 45 0 69 -22 85 -79 22 -80 31 -96 90 -151 74
-70 120 -65 154 15 22 50 51 64 83 41 67 -50 113 -76 133 -76 26 0 129 65 129
81 0 6 -23 20 -50 32 -88 39 -93 48 -45 97 17 17 30 35 30 40 0 6 12 10 28 11
25 0 25 2 -13 19 -22 10 -57 19 -78 19 -29 1 -46 9 -68 30 -31 31 -36 59 -18
93 16 31 -12 48 -78 48 -29 0 -53 3 -53 7 0 4 11 19 25 33 l25 26 -25 24 c-14
13 -25 28 -25 33 0 6 -8 19 -17 30 -10 10 -18 33 -18 50 0 27 -5 32 -35 40
-19 5 -39 13 -44 18 -13 12 -159 9 -211 -3z"/>
</g>
</svg>
