<?xml version="1.0" standalone="no"?>
<!DOCTYPE svg PUBLIC "-//W3C//DTD SVG 20010904//EN"
 "http://www.w3.org/TR/2001/REC-SVG-20010904/DTD/svg10.dtd">
<svg version="1.0" xmlns="http://www.w3.org/2000/svg"
 width="180.000000pt" height="180.000000pt" viewBox="0 0 180.000000 180.000000"
 preserveAspectRatio="xMidYMid meet">

<g transform="translate(0.000000,180.000000) scale(0.100000,-0.100000)"
fill="#808000" stroke="none">
<path d="M1635 1610 c-12 -19 -78 -40 -127 -40 -63 0 -114 -21 -123 -52 -17
-55 -75 -134 -114 -156 -38 -22 -46 -22 -116 -13 -89 13 -98 17 -150 70 l-39
41 -116 0 c-142 0 -170 -8 -229 -63 -36 -34 -59 -46 -92 -52 -80 -12 -76 -7
-76 -100 1 -70 -3 -90 -19 -112 -40 -54 -117 -56 -127 -4 -3 16 -17 41 -30 56
-22 26 -25 27 -60 16 -41 -14 -77 -64 -87 -120 -4 -28 -16 -43 -53 -71 l-48
-35 5 -85 c7 -112 29 -254 39 -244 4 4 17 -2 30 -13 12 -11 37 -28 55 -37 31
-16 35 -16 66 4 19 11 39 27 46 35 16 20 77 19 205 -1 185 -29 180 -27 183
-52 2 -13 -1 -29 -7 -36 -7 -8 -8 -31 -5 -60 l7 -46 48 0 c69 0 119 -26 119
-62 0 -28 -2 -34 -33 -94 l-17 -31 35 -6 c20 -3 45 -18 62 -36 23 -24 37 -30
77 -33 46 -3 50 -1 56 22 3 14 16 30 28 35 13 6 32 28 43 50 11 22 25 48 32
58 10 15 9 21 -6 32 -25 19 -6 54 34 62 33 6 40 38 13 57 -13 10 -11 17 21 50
25 27 35 45 31 59 -3 14 3 26 20 40 28 21 144 193 144 211 0 7 -5 17 -11 23
-17 17 -1 52 32 68 16 9 36 29 44 45 8 16 33 40 55 52 28 16 40 30 40 46 0 14
18 40 45 66 34 34 45 52 45 76 0 21 9 39 26 55 14 13 34 39 43 57 11 20 30 36
51 43 43 15 49 33 18 59 -38 33 -59 73 -65 126 -5 39 -10 50 -24 50 -10 0 -21
-5 -24 -10z"/>
</g>
</svg>
