<?xml version="1.0" standalone="no"?>
<!DOCTYPE svg PUBLIC "-//W3C//DTD SVG 20010904//EN"
 "http://www.w3.org/TR/2001/REC-SVG-20010904/DTD/svg10.dtd">
<svg version="1.0" xmlns="http://www.w3.org/2000/svg"
 width="150.000000pt" height="150.000000pt" viewBox="0 0 150.000000 150.000000"
 preserveAspectRatio="xMidYMid meet">
<metadata>
Created by potrace 1.10, written by Peter Selinger 2001-2011
</metadata>
<g transform="translate(0.000000,150.000000) scale(0.100000,-0.100000)"
fill="#000000" stroke="none">
<path d="M652 988 c-5 -7 -13 -24 -17 -38 -11 -35 -73 -127 -90 -134 -8 -3
-15 -14 -15 -23 0 -10 -9 -26 -20 -36 -40 -34 -22 -198 26 -238 12 -10 26 -9
68 4 33 11 80 16 124 15 61 -2 74 1 95 20 13 12 30 22 39 22 9 0 26 19 38 44
18 38 19 48 8 66 -16 25 0 40 47 40 17 0 37 5 45 10 12 9 6 18 -35 55 -55 50
-77 55 -102 25 -27 -31 -43 -25 -43 18 0 50 -30 96 -87 132 -52 33 -66 36 -81
18z"/>
</g>
</svg>
