<?xml version="1.0" standalone="no"?>
<!DOCTYPE svg PUBLIC "-//W3C//DTD SVG 20010904//EN"
 "http://www.w3.org/TR/2001/REC-SVG-20010904/DTD/svg10.dtd">
<svg version="1.0" xmlns="http://www.w3.org/2000/svg"
 width="100.000000pt" height="100.000000pt" viewBox="0 0 100.000000 100.000000"
 preserveAspectRatio="xMidYMid meet">

<g transform="translate(0.000000,100.000000) scale(0.100000,-0.100000)"
fill="#00FFFF" stroke="none">
<path d="M407 678 c-3 -18 -12 -53 -20 -78 -9 -25 -18 -57 -21 -72 -5 -22 -12
-28 -32 -28 -14 0 -33 4 -42 9 -9 4 -40 11 -68 15 l-52 6 -7 -37 c-6 -31 -3
-39 17 -55 13 -10 41 -23 63 -29 22 -6 54 -23 71 -39 24 -20 46 -29 93 -34 34
-4 80 -14 102 -22 23 -7 44 -14 48 -14 7 0 28 56 45 124 14 55 51 92 103 102
19 4 49 23 72 45 21 21 44 39 50 39 6 0 11 5 11 10 0 6 -15 10 -34 10 -22 0
-45 9 -64 25 -20 17 -42 25 -68 25 -22 0 -84 7 -139 15 -130 19 -122 20 -128
-17z"/>
</g>
</svg>
