<?xml version="1.0" standalone="no"?>
<!DOCTYPE svg PUBLIC "-//W3C//DTD SVG 20010904//EN"
 "http://www.w3.org/TR/2001/REC-SVG-20010904/DTD/svg10.dtd">
<svg version="1.0" xmlns="http://www.w3.org/2000/svg"
 width="300.000000pt" height="300.000000pt" viewBox="0 0 300.000000 300.000000"
 preserveAspectRatio="xMidYMid meet">
<metadata>
Created by potrace 1.10, written by Peter Selinger 2001-2011
</metadata>
<g transform="translate(0.000000,300.000000) scale(0.100000,-0.100000)"
fill="#000000" stroke="none">
<path d="M2017 2204 c-32 -18 -33 -31 -3 -134 16 -53 16 -56 -3 -71 -18 -15
-28 -48 -61 -202 -4 -21 -12 -42 -16 -47 -13 -13 -152 -40 -206 -40 -27 0 -74
-9 -105 -19 -109 -37 -129 -36 -244 7 -57 22 -124 42 -148 46 -40 6 -47 4 -75
-22 -17 -17 -68 -49 -114 -73 -68 -35 -88 -51 -109 -86 -14 -24 -34 -45 -46
-48 -12 -2 -35 -6 -52 -9 -16 -3 -42 -8 -57 -11 -25 -7 -29 -3 -55 51 -25 52
-32 59 -72 71 -42 12 -46 11 -75 -11 -17 -13 -50 -33 -73 -45 -24 -12 -50 -32
-58 -44 -8 -13 -26 -30 -40 -37 -42 -22 -31 -40 25 -40 60 0 72 -16 63 -87 -5
-49 -5 -50 23 -57 16 -4 60 -17 99 -28 51 -16 64 -23 50 -28 -11 -4 -22 -18
-25 -31 -3 -13 -16 -28 -28 -34 -36 -16 -26 -57 18 -68 19 -5 47 -17 62 -28
15 -11 62 -29 105 -40 69 -18 96 -20 234 -14 156 6 157 6 173 -16 9 -13 16
-36 16 -52 0 -33 20 -75 49 -101 18 -16 30 -18 94 -12 67 7 78 5 122 -18 31
-17 64 -26 94 -26 40 0 50 5 89 43 39 39 47 42 91 40 26 -1 71 -11 99 -22 28
-11 79 -23 114 -26 54 -6 74 -2 144 24 44 16 109 33 143 37 59 6 64 5 120 -30
63 -39 83 -42 119 -23 31 18 112 128 111 152 -1 42 -102 205 -128 205 -21 1
-51 24 -51 39 0 6 -16 28 -36 47 -39 40 -35 58 17 69 36 8 36 15 4 45 -37 35
-85 113 -85 139 0 15 -7 25 -21 28 -27 7 -5 23 33 23 43 0 52 28 44 149 -5 95
-4 111 17 160 21 51 26 56 100 94 69 35 77 42 77 68 0 21 -6 32 -22 38 -13 5
-32 23 -43 40 -20 31 -21 31 -80 25 -33 -3 -69 -12 -80 -19 -11 -7 -39 -16
-61 -19 -36 -6 -43 -4 -57 17 -10 15 -36 30 -74 41 -32 9 -66 21 -75 27 -24
12 -38 11 -71 -7z"/>
</g>
</svg>
