<?xml version="1.0" standalone="no"?>
<!DOCTYPE svg PUBLIC "-//W3C//DTD SVG 20010904//EN"
 "http://www.w3.org/TR/2001/REC-SVG-20010904/DTD/svg10.dtd">
<svg version="1.0" xmlns="http://www.w3.org/2000/svg"
 width="210.000000pt" height="150.000000pt" viewBox="0 0 210.000000 150.000000"
 preserveAspectRatio="xMidYMid meet">

<g transform="translate(0.000000,150.000000) scale(0.100000,-0.100000)"
fill="#FF0000" stroke="none">
<path d="M685 1015 l-50 -55 -106 0 -106 0 -79 -51 c-87 -57 -247 -196 -280
-243 -17 -24 -18 -34 -10 -53 6 -12 19 -23 28 -23 9 0 19 -4 23 -9 3 -5 30
-13 61 -17 53 -6 57 -5 78 21 l22 27 39 -36 c44 -40 70 -46 78 -16 3 11 13 20
23 20 10 0 28 10 41 22 29 27 56 15 61 -26 3 -23 7 -27 25 -22 17 3 28 -3 47
-29 20 -27 34 -35 74 -40 48 -7 51 -6 84 30 32 34 36 36 75 29 23 -3 58 -12
77 -19 20 -7 60 -16 90 -20 30 -4 81 -20 112 -36 69 -35 78 -36 78 -6 0 12 7
32 15 44 8 12 12 28 9 36 -8 21 12 54 36 62 11 4 42 -1 69 -10 28 -9 77 -16
113 -15 92 2 187 -14 237 -39 43 -23 44 -23 85 -4 22 10 56 33 75 52 30 29 32
35 18 43 -22 12 -22 44 1 67 20 22 62 45 68 38 3 -2 8 -27 13 -55 9 -60 25
-82 58 -82 28 0 83 38 83 57 0 7 -11 18 -25 25 -24 11 -38 41 -50 110 -4 20
-19 48 -35 63 l-29 28 -125 -7 c-96 -6 -149 -4 -232 9 -100 16 -109 16 -135 1
-36 -21 -116 -46 -150 -46 -14 0 -46 13 -70 30 -24 16 -49 30 -56 30 -7 0 -26
-21 -43 -46 -42 -60 -69 -70 -125 -45 -51 23 -86 71 -109 152 -22 78 -48 109
-94 109 -31 0 -43 -8 -87 -55z"/>
</g>
</svg>
