<?xml version="1.0" standalone="no"?>
<!DOCTYPE svg PUBLIC "-//W3C//DTD SVG 20010904//EN"
 "http://www.w3.org/TR/2001/REC-SVG-20010904/DTD/svg10.dtd">
<svg version="1.0" xmlns="http://www.w3.org/2000/svg"
 width="150.000000pt" height="150.000000pt" viewBox="0 0 150.000000 150.000000"
 preserveAspectRatio="xMidYMid meet">

<g transform="translate(0.000000,150.000000) scale(0.100000,-0.100000)"
fill="#008080" stroke="none">
<path d="M660 1065 c-7 -9 -26 -25 -42 -36 l-28 -20 -29 20 c-15 11 -40 25
-54 30 -23 9 -28 7 -46 -22 -18 -29 -19 -40 -11 -92 5 -33 12 -70 15 -81 5
-16 0 -26 -17 -38 -19 -14 -21 -19 -10 -34 23 -33 25 -44 8 -72 -9 -16 -16
-45 -16 -66 0 -21 -5 -51 -11 -68 -10 -28 -7 -37 23 -88 51 -87 67 -90 243
-46 49 12 75 13 142 3 45 -7 54 -5 59 9 11 28 84 60 139 60 72 1 70 21 -9 103
-41 43 -62 71 -56 77 6 6 10 20 10 33 0 22 -3 23 -90 23 -74 0 -92 3 -97 16
-4 10 0 20 10 26 27 14 24 156 -3 191 -13 17 -27 23 -39 20 -16 -4 -20 1 -23
29 -2 27 -8 34 -29 36 -15 2 -31 -4 -39 -13z"/>
</g>
</svg>
