<?xml version="1.0" standalone="no"?>
<!DOCTYPE svg PUBLIC "-//W3C//DTD SVG 20010904//EN"
 "http://www.w3.org/TR/2001/REC-SVG-20010904/DTD/svg10.dtd">
<svg version="1.0" xmlns="http://www.w3.org/2000/svg"
 width="150.000000pt" height="150.000000pt" viewBox="0 0 150.000000 150.000000"
 preserveAspectRatio="xMidYMid meet">

<g transform="translate(0.000000,150.000000) scale(0.100000,-0.100000)"
fill="#000000" stroke="none">
<path d="M386 1171 c-16 -30 -34 -41 -69 -41 -41 -1 -107 -78 -107 -126 0 -9
-9 -32 -21 -50 -17 -28 -32 -37 -90 -54 l-69 -21 0 -41 c0 -61 36 -134 74
-150 17 -7 64 -43 105 -81 41 -38 85 -74 98 -80 22 -10 28 -22 35 -71 4 -25
22 -30 230 -55 95 -12 192 -24 214 -27 26 -3 50 -14 64 -29 34 -36 97 -35 133
3 15 15 27 39 27 53 1 13 7 35 14 48 20 35 130 125 200 162 33 18 80 49 103
69 23 20 60 42 81 48 22 7 45 18 51 26 10 12 2 16 -46 26 -103 20 -126 29
-166 61 -36 29 -42 31 -72 21 -47 -18 -55 -15 -55 17 0 21 -8 36 -30 51 -16
11 -38 41 -49 66 -20 44 -20 44 -70 44 -38 0 -51 -4 -51 -15 0 -23 -43 -45
-101 -52 -31 -3 -59 -12 -66 -21 -21 -26 -15 -71 12 -98 33 -33 32 -50 -5 -62
-16 -6 -45 -22 -63 -36 -21 -16 -37 -22 -46 -17 -9 6 -19 50 -28 117 -14 108
-41 206 -72 254 -56 88 -136 118 -165 61z"/>
</g>
</svg>
