<?xml version="1.0" standalone="no"?>
<!DOCTYPE svg PUBLIC "-//W3C//DTD SVG 20010904//EN"
 "http://www.w3.org/TR/2001/REC-SVG-20010904/DTD/svg10.dtd">
<svg version="1.0" xmlns="http://www.w3.org/2000/svg"
 width="100.000000pt" height="100.000000pt" viewBox="0 0 100.000000 100.000000"
 preserveAspectRatio="xMidYMid meet">

<g transform="translate(0.000000,100.000000) scale(0.100000,-0.100000)"
fill="#008080" stroke="none">
<path d="M568 809 c-10 -5 -18 -18 -18 -29 0 -10 -9 -21 -20 -25 -11 -3 -29
-19 -40 -35 -13 -19 -32 -30 -58 -35 -97 -17 -187 -175 -142 -253 5 -9 14 -29
20 -44 6 -18 17 -28 30 -28 21 0 51 -49 64 -105 16 -64 42 -69 128 -28 33 17
57 35 57 44 1 9 -13 33 -29 54 -29 36 -30 42 -24 99 9 92 32 156 60 166 16 6
27 22 34 52 7 23 25 62 42 86 35 51 32 67 -14 75 -18 3 -42 9 -53 12 -11 3
-28 0 -37 -6z"/>
</g>
</svg>
