<?xml version="1.0" standalone="no"?>
<!DOCTYPE svg PUBLIC "-//W3C//DTD SVG 20010904//EN"
 "http://www.w3.org/TR/2001/REC-SVG-20010904/DTD/svg10.dtd">
<svg version="1.0" xmlns="http://www.w3.org/2000/svg"
 width="160.000000pt" height="160.000000pt" viewBox="0 0 160.000000 160.000000"
 preserveAspectRatio="xMidYMid meet">

<g transform="translate(0.000000,160.000000) scale(0.100000,-0.100000)"
fill="#000000" stroke="none">
<path d="M278 1136 c-15 -23 -31 -53 -36 -67 -5 -13 -28 -39 -51 -57 -22 -18
-41 -41 -41 -52 0 -21 -31 -80 -42 -80 -12 0 -10 -38 2 -45 6 -3 10 -15 10
-26 0 -14 -9 -21 -30 -26 -40 -7 -59 -40 -34 -57 10 -8 15 -20 11 -30 -5 -13
1 -16 36 -16 23 0 79 5 125 12 l83 11 30 -32 c20 -22 35 -31 46 -27 9 4 41 9
72 12 56 6 56 6 89 -34 17 -23 32 -45 32 -50 0 -13 25 -22 61 -22 19 0 37 -10
55 -29 33 -37 136 -101 163 -101 11 0 28 11 37 25 9 14 21 22 26 19 6 -4 8 2
3 15 -5 16 -2 21 11 21 14 0 16 7 12 45 -3 25 -1 48 4 52 9 5 149 32 170 33 4
0 5 -34 1 -75 l-6 -75 92 0 c67 0 98 4 116 16 17 11 36 14 58 10 45 -8 62 8
81 76 12 40 25 63 45 77 16 12 34 34 39 50 9 25 7 32 -14 52 -13 12 -31 41
-40 65 -9 24 -25 46 -34 49 -32 10 -70 46 -70 66 0 19 -33 59 -49 59 -5 0 -14
7 -21 15 -19 23 -33 19 -86 -24 -40 -31 -59 -39 -99 -42 -28 -2 -64 0 -82 5
-23 5 -42 2 -72 -13 -30 -16 -59 -21 -118 -21 l-78 0 -27 45 c-31 51 -58 65
-124 65 -38 0 -44 3 -44 20 0 11 7 23 15 26 9 4 15 19 15 35 l0 29 -103 0
c-70 0 -109 4 -122 14 -11 7 -36 15 -55 18 -32 5 -37 3 -62 -36z"/>
</g>
</svg>
