<?xml version="1.0" standalone="no"?>
<!DOCTYPE svg PUBLIC "-//W3C//DTD SVG 20010904//EN"
 "http://www.w3.org/TR/2001/REC-SVG-20010904/DTD/svg10.dtd">
<svg version="1.0" xmlns="http://www.w3.org/2000/svg"
 width="150.000000pt" height="150.000000pt" viewBox="0 0 150.000000 150.000000"
 preserveAspectRatio="xMidYMid meet">
<metadata>
Created by potrace 1.10, written by Peter Selinger 2001-2011
</metadata>
<g transform="translate(0.000000,150.000000) scale(0.100000,-0.100000)"
fill="#FFFF00" stroke="none">
<path d="M770 1070 c-12 -16 -41 -42 -66 -56 -24 -14 -49 -34 -54 -43 -8 -16
-69 -41 -99 -41 -16 0 -13 31 6 52 15 17 14 18 -18 18 -19 0 -47 9 -63 19 -22
15 -35 17 -54 10 -19 -7 -27 -6 -37 8 -12 16 -15 15 -48 -10 -20 -15 -40 -27
-45 -27 -4 0 -19 -11 -32 -25 -29 -31 -48 -32 -59 -2 -26 66 -93 89 -99 34 -2
-16 -11 -31 -20 -34 -48 -17 -66 -59 -37 -83 23 -19 18 -55 -11 -90 -29 -33
-29 -33 12 -111 7 -14 11 -29 7 -32 -15 -16 22 -37 64 -37 58 0 83 -14 83 -47
0 -16 12 -37 35 -57 22 -20 35 -42 35 -57 0 -14 5 -30 12 -37 25 -25 120 -5
139 29 5 10 14 19 20 19 12 0 108 63 193 128 54 40 62 44 99 38 23 -4 46 -11
53 -17 21 -17 172 -49 233 -49 32 0 75 7 94 15 20 8 61 15 91 15 36 0 83 11
140 31 83 31 86 33 91 68 3 20 10 44 16 53 5 10 9 25 9 35 0 9 9 43 21 76 18
50 20 69 13 126 -12 85 -29 89 -102 24 -43 -39 -56 -58 -67 -98 -14 -56 -3
-53 -147 -40 -103 10 -118 24 -118 109 l0 63 -79 5 c-56 3 -89 11 -115 26 -50
29 -71 28 -96 -8z"/>
</g>
</svg>
