<?xml version="1.0" standalone="no"?>
<!DOCTYPE svg PUBLIC "-//W3C//DTD SVG 20010904//EN"
 "http://www.w3.org/TR/2001/REC-SVG-20010904/DTD/svg10.dtd">
<svg version="1.0" xmlns="http://www.w3.org/2000/svg"
 width="150.000000pt" height="150.000000pt" viewBox="0 0 150.000000 150.000000"
 preserveAspectRatio="xMidYMid meet">

<g transform="translate(0.000000,150.000000) scale(0.100000,-0.100000)"
fill="#00FF00" stroke="none">
<path d="M358 1226 c-26 -40 -96 -81 -163 -96 -64 -14 -71 -21 -89 -85 -10
-32 -28 -65 -47 -83 l-32 -31 16 -43 c10 -24 17 -54 17 -66 0 -14 9 -27 25
-34 14 -6 32 -22 40 -35 13 -19 24 -23 64 -23 44 0 49 -3 55 -25 4 -14 2 -33
-2 -43 -5 -9 -12 -33 -16 -53 -4 -24 -23 -53 -62 -93 -48 -49 -55 -61 -49 -84
3 -15 10 -47 14 -71 11 -58 69 -110 123 -111 31 0 39 4 44 24 5 19 14 24 53
29 55 6 93 27 151 81 45 41 102 56 220 56 63 0 67 -1 105 -40 57 -58 79 -66
183 -74 l93 -7 35 35 c19 19 34 43 34 54 0 11 7 25 16 32 8 8 27 33 41 57 l25
43 69 0 c50 0 81 6 109 20 43 22 46 33 26 90 -11 31 -16 35 -44 32 -17 -2 -54
7 -87 22 -30 14 -74 30 -96 35 -23 5 -53 20 -68 34 -32 30 -128 76 -175 84
-20 3 -46 18 -62 34 -15 16 -33 29 -40 29 -6 0 -17 7 -24 15 -7 8 -25 15 -41
15 -15 0 -34 6 -41 13 -23 21 -102 72 -131 85 -15 7 -42 12 -60 12 -38 0 -41
2 -89 58 -26 28 -38 52 -38 72 0 34 -31 70 -60 70 -11 0 -29 -14 -42 -34z"/>
</g>
</svg>
